<svg width="30" height="30" viewBox="0 0 30 30" fill="none" xmlns="http://www.w3.org/2000/svg">
<path d="M25.6131 4.39083C19.7639 -1.4584 10.2434 -1.4584 4.39416 4.39083C1.56078 7.22533 0 10.9931 0 15.0003C0 19.0074 1.56078 22.7752 4.39416 25.6086C7.31937 28.5338 11.1615 29.9958 15.0036 29.9958C18.8457 29.9958 22.6879 28.5338 25.613 25.6086C31.4623 19.7594 31.4623 10.2412 25.6131 4.39083ZM23.9698 23.9653C19.0259 28.9092 10.9813 28.9092 6.03744 23.9653C3.64339 21.5712 2.32432 18.3869 2.32432 15.0003C2.32432 11.6137 3.64339 8.42933 6.03744 6.03411C10.9813 1.09022 19.0259 1.09139 23.9698 6.03411C28.9125 10.978 28.9125 19.0225 23.9698 23.9653Z" fill="white"/>
<path d="M20.0112 18.2128L16.721 14.9274L20.0112 11.6419C20.4644 11.1887 20.4644 10.4531 20.0123 9.99861C19.5579 9.54304 18.8223 9.54421 18.3679 9.99744L15.0755 13.2852L11.7831 9.99744C11.3287 9.54421 10.593 9.54304 10.1386 9.99861C9.68538 10.453 9.68537 11.1887 10.1398 11.6419L13.4299 14.9274L10.1398 18.2128C9.68537 18.6661 9.68538 19.4017 10.1386 19.8562C10.3652 20.0839 10.6639 20.1967 10.9614 20.1967C11.259 20.1967 11.5565 20.0828 11.7831 19.8573L15.0755 16.5695L18.3679 19.8573C18.5946 20.0839 18.8921 20.1967 19.1896 20.1967C19.4871 20.1967 19.7858 20.0827 20.0124 19.8562C20.4655 19.4017 20.4655 18.6661 20.0112 18.2128Z" fill="white"/>
</svg>
