<svg width="40" height="40" viewBox="0 0 40 40" fill="none" xmlns="http://www.w3.org/2000/svg">
<circle cx="20" cy="20" r="20" fill="white"/>
<path d="M27.0001 9.33301H23.5001C21.953 9.33301 20.4693 9.94759 19.3753 11.0416C18.2813 12.1355 17.6667 13.6192 17.6667 15.1663V18.6663H14.1667V23.333H17.6667V32.6663H22.3334V23.333H25.8334L27.0001 18.6663H22.3334V15.1663C22.3334 14.8569 22.4563 14.5602 22.6751 14.3414C22.8939 14.1226 23.1907 13.9997 23.5001 13.9997H27.0001V9.33301Z" stroke="white" stroke-width="1.5" stroke-linecap="round" stroke-linejoin="round"/>
<path d="M23.6123 14.7798C23.6459 14.7418 23.8033 14.6177 24.4212 14.6177L26.4471 14.617C27.1062 14.617 27.6422 14.0808 27.6422 13.4217V9.88078C27.6422 9.22282 27.107 8.68668 26.449 8.68555L23.4397 8.68066C21.5824 8.68066 20.0035 9.29332 18.8737 10.4526C17.7489 11.6067 17.1543 13.2178 17.1543 15.1114V17.0211H14.8522C14.1931 17.0211 13.657 17.5573 13.657 18.2164V22.0299C13.657 22.689 14.1931 23.2251 14.8522 23.2251H17.1543V32.1254C17.1543 32.7845 17.6905 33.3207 18.3495 33.3207H22.2954C22.9545 33.3207 23.4906 32.7845 23.4906 32.1254V23.2253H26.3046C26.9637 23.2253 27.4997 22.689 27.4997 22.0303L27.5012 18.2166C27.5012 17.7836 27.2656 17.383 26.8863 17.1712C26.7105 17.073 26.506 17.0211 26.2951 17.0211H23.4906V15.5123C23.4906 15.0206 23.5568 14.8425 23.6123 14.7798Z" fill="#3B52C4"/>
</svg>
