<svg width="40" height="40" viewBox="0 0 40 40" fill="none" xmlns="http://www.w3.org/2000/svg">
<circle cx="20" cy="20" r="20" fill="white"/>
<path d="M25.833 8.33301H14.1663C10.9447 8.33301 8.33301 10.9447 8.33301 14.1663V25.833C8.33301 29.0547 10.9447 31.6663 14.1663 31.6663H25.833C29.0547 31.6663 31.6663 29.0547 31.6663 25.833V14.1663C31.6663 10.9447 29.0547 8.33301 25.833 8.33301Z" stroke="white" stroke-width="1.5" stroke-linecap="round" stroke-linejoin="round"/>
<path d="M24.6667 19.2654C24.8106 20.2363 24.6448 21.2279 24.1927 22.0992C23.7406 22.9705 23.0253 23.677 22.1485 24.1183C21.2718 24.5596 20.2782 24.7132 19.3091 24.5573C18.34 24.4013 17.4447 23.9438 16.7506 23.2497C16.0566 22.5556 15.599 21.6604 15.4431 20.6913C15.2871 19.7222 15.4407 18.7286 15.882 17.8518C16.3233 16.975 17.0299 16.2597 17.9011 15.8076C18.7724 15.3556 19.764 15.1897 20.735 15.3337C21.7254 15.4806 22.6423 15.9421 23.3503 16.65C24.0583 17.358 24.5198 18.2749 24.6667 19.2654Z" stroke="white" stroke-width="1.5" stroke-linecap="round" stroke-linejoin="round"/>
<path d="M26.417 13.583H26.4287" stroke="white" stroke-width="1.5" stroke-linecap="round" stroke-linejoin="round"/>
<path d="M25.6586 6H14.3414C9.74191 6 6 9.74191 6 14.3414V25.6586C6 30.2581 9.74191 34 14.3414 34H25.6586C30.2581 34 34 30.2581 34 25.6586V14.3414C34 9.74191 30.258 6 25.6586 6ZM31.1832 25.6586C31.1832 28.7097 28.7097 31.1832 25.6586 31.1832H14.3414C11.2903 31.1832 8.8168 28.7097 8.8168 25.6586V14.3414C8.8168 11.2902 11.2903 8.8168 14.3414 8.8168H25.6586C28.7097 8.8168 31.1832 11.2902 31.1832 14.3414V25.6586Z" fill="url(#paint0_linear)"/>
<path d="M19.9996 12.7578C16.0065 12.7578 12.7578 16.0065 12.7578 19.9996C12.7578 23.9926 16.0065 27.2414 19.9996 27.2414C23.9927 27.2414 27.2414 23.9927 27.2414 19.9996C27.2414 16.0064 23.9927 12.7578 19.9996 12.7578ZM19.9996 24.4246C17.5557 24.4246 15.5746 22.4435 15.5746 19.9996C15.5746 17.5557 17.5558 15.5746 19.9996 15.5746C22.4435 15.5746 24.4246 17.5557 24.4246 19.9996C24.4246 22.4434 22.4434 24.4246 19.9996 24.4246Z" fill="url(#paint1_linear)"/>
<path d="M27.2558 14.5477C28.2142 14.5477 28.9911 13.7708 28.9911 12.8124C28.9911 11.8541 28.2142 11.0771 27.2558 11.0771C26.2974 11.0771 25.5205 11.8541 25.5205 12.8124C25.5205 13.7708 26.2974 14.5477 27.2558 14.5477Z" fill="url(#paint2_linear)"/>
<defs>
<linearGradient id="paint0_linear" x1="20" y1="33.9185" x2="20" y2="6.21748" gradientUnits="userSpaceOnUse">
<stop stop-color="#E09B3D"/>
<stop offset="0.3" stop-color="#C74C4D"/>
<stop offset="0.6" stop-color="#C21975"/>
<stop offset="1" stop-color="#7024C4"/>
</linearGradient>
<linearGradient id="paint1_linear" x1="19.9996" y1="33.9181" x2="19.9996" y2="6.21709" gradientUnits="userSpaceOnUse">
<stop stop-color="#E09B3D"/>
<stop offset="0.3" stop-color="#C74C4D"/>
<stop offset="0.6" stop-color="#C21975"/>
<stop offset="1" stop-color="#7024C4"/>
</linearGradient>
<linearGradient id="paint2_linear" x1="27.2558" y1="33.9184" x2="27.2558" y2="6.21734" gradientUnits="userSpaceOnUse">
<stop stop-color="#E09B3D"/>
<stop offset="0.3" stop-color="#C74C4D"/>
<stop offset="0.6" stop-color="#C21975"/>
<stop offset="1" stop-color="#7024C4"/>
</linearGradient>
</defs>
</svg>
