<svg width="40" height="40" viewBox="0 0 40 40" fill="none" xmlns="http://www.w3.org/2000/svg">
<circle cx="20" cy="20" r="20" fill="#F65B00"/>
<path d="M25.833 8.33301H14.1663C10.9447 8.33301 8.33301 10.9447 8.33301 14.1663V25.833C8.33301 29.0547 10.9447 31.6663 14.1663 31.6663H25.833C29.0547 31.6663 31.6663 29.0547 31.6663 25.833V14.1663C31.6663 10.9447 29.0547 8.33301 25.833 8.33301Z" stroke="white" stroke-width="1.5" stroke-linecap="round" stroke-linejoin="round"/>
<path d="M24.6667 19.2654C24.8106 20.2363 24.6448 21.2279 24.1927 22.0992C23.7406 22.9705 23.0253 23.677 22.1485 24.1183C21.2718 24.5596 20.2782 24.7132 19.3091 24.5573C18.34 24.4013 17.4447 23.9438 16.7506 23.2497C16.0566 22.5556 15.599 21.6604 15.4431 20.6913C15.2871 19.7222 15.4407 18.7286 15.882 17.8518C16.3233 16.975 17.0299 16.2597 17.9011 15.8076C18.7724 15.3556 19.764 15.1897 20.735 15.3337C21.7254 15.4806 22.6423 15.9421 23.3503 16.65C24.0583 17.358 24.5198 18.2749 24.6667 19.2654Z" stroke="white" stroke-width="1.5" stroke-linecap="round" stroke-linejoin="round"/>
<path d="M26.417 13.583H26.4287" stroke="white" stroke-width="1.5" stroke-linecap="round" stroke-linejoin="round"/>
</svg>
