<svg width="40" height="40" viewBox="0 0 40 40" fill="none" xmlns="http://www.w3.org/2000/svg">
<circle cx="20" cy="20" r="20" fill="white"/>
<path d="M14.9863 24.7113L14.5232 31.226C15.1858 31.226 15.4728 30.9413 15.817 30.5995L18.9238 27.6303L25.3615 32.3448C26.5422 33.0028 27.374 32.6563 27.6925 31.2586L31.9182 11.458L31.9193 11.4568C32.2938 9.71148 31.2882 9.02898 30.1378 9.45715L5.29951 18.9666C3.60434 19.6246 3.63001 20.5696 5.01134 20.9978L11.3615 22.973L26.1117 13.7435C26.8058 13.2838 27.437 13.5381 26.9178 13.9978L14.9863 24.7113Z" fill="white"/>
<path d="M14.9866 24.7113L14.5234 31.226C15.1861 31.226 15.4731 30.9413 15.8173 30.5995L18.9241 27.6303L25.3618 32.3448C26.5424 33.0028 27.3743 32.6563 27.6928 31.2586L31.9184 11.458L31.9196 11.4568C32.2941 9.71148 31.2884 9.02898 30.1381 9.45715L5.29975 18.9666C3.60459 19.6246 3.63025 20.5696 5.01159 20.9978L11.3618 22.973L26.1119 13.7435C26.8061 13.2838 27.4373 13.5381 26.9181 13.9978L14.9866 24.7113Z" fill="#039BE5"/>
</svg>
