<svg width="40" height="40" viewBox="0 0 40 40" fill="none" xmlns="http://www.w3.org/2000/svg">
<circle cx="20" cy="20" r="20" fill="white"/>
<path d="M20.3644 7.01504C13.4419 7.34198 7.97906 13.0605 8.00006 19.9349C8.00645 22.0286 8.51604 24.0048 9.41498 25.751L8.03479 32.3965C7.96013 32.7559 8.28698 33.0707 8.647 32.9861L15.2118 31.4433C16.8984 32.2767 18.7928 32.758 20.7978 32.7884C27.8733 32.8956 33.773 27.3229 33.9935 20.3072C34.2299 12.7868 27.9726 6.65563 20.3644 7.01504ZM28.1977 27.0345C26.2751 28.9415 23.7189 29.9917 21 29.9917C19.408 29.9917 17.8838 29.6374 16.4696 28.9387L15.5554 28.487L11.5305 29.4329L12.3777 25.3534L11.9273 24.4785C11.1932 23.0524 10.8209 21.5102 10.8209 19.8949C10.8209 17.198 11.8797 14.6625 13.8023 12.7554C15.7077 10.8654 18.3056 9.79806 21.0002 9.79806C23.7191 9.79813 26.2752 10.8484 28.1977 12.7553C30.1203 14.6623 31.1791 17.1978 31.1792 19.8947C31.1791 22.5677 30.1031 25.1445 28.1977 27.0345Z" fill="#33BE1E"/>
<path d="M27.3091 22.6913L24.7911 21.9741C24.46 21.8799 24.1035 21.973 23.8623 22.2168L23.2465 22.8391C22.9868 23.1015 22.5928 23.1858 22.2492 23.0479C21.058 22.5697 18.5523 20.3598 17.9123 19.2545C17.7277 18.9356 17.7583 18.5369 17.9849 18.246L18.5225 17.5561C18.7332 17.2858 18.7776 16.9228 18.6383 16.6103L17.5789 14.2336C17.3252 13.6643 16.5918 13.4986 16.1127 13.9006C15.4099 14.4902 14.576 15.3861 14.4746 16.3787C14.2959 18.1287 15.0525 20.3348 17.9138 22.9837C21.2193 26.0439 23.8663 26.4482 25.5898 26.0341C26.5674 25.7992 27.3486 24.8577 27.8416 24.0868C28.1777 23.5612 27.9123 22.8631 27.3091 22.6913Z" fill="#33BE1E"/>
</svg>
