<svg width="40" height="40" viewBox="0 0 40 40" fill="none" xmlns="http://www.w3.org/2000/svg">
<path d="M34.6098 0H5.39012C2.4133 0 0 2.41318 0 5.39008V34.6097C0 37.5866 2.4132 39.9998 5.39012 39.9998H19.8011L19.8257 25.706H16.1121C15.6295 25.706 15.2378 25.3158 15.236 24.8332L15.2182 20.2257C15.2163 19.7405 15.6092 19.3462 16.0944 19.3462H19.8012V14.8942C19.8012 9.72768 22.9566 6.91449 27.5655 6.91449H31.3474C31.8313 6.91449 32.2237 7.30677 32.2237 7.79074V11.6758C32.2237 12.1596 31.8316 12.5517 31.3479 12.552L29.027 12.5531C26.5205 12.5531 26.0352 13.7441 26.0352 15.492V19.3463H31.5427C32.0675 19.3463 32.4747 19.8045 32.4128 20.3256L31.8667 24.9331C31.8145 25.374 31.4406 25.7062 30.9966 25.7062H26.0598L26.0352 40H34.61C37.5868 40 40 37.5868 40 34.61V5.39008C39.9999 2.41318 37.5867 0 34.6098 0Z" fill="#475993"/>
</svg>
