<svg width="40" height="40" viewBox="0 0 40 40" fill="none" xmlns="http://www.w3.org/2000/svg">
<g clip-path="url(#clip0)">
<path d="M2.49989 2.72166C-0.643441 5.98666 -0.000107862 9.455 -0.000107862 19.9917C-0.000107862 28.7417 -1.52677 37.5133 6.46323 39.5783C8.95823 40.22 31.0649 40.22 33.5566 39.575C36.8832 38.7167 39.5899 36.0183 39.9599 31.3133C40.0116 30.6567 40.0116 9.33833 39.9582 8.66833C39.5649 3.65666 36.4799 0.768329 32.4149 0.183329C31.4832 0.0483293 31.2966 0.00832926 26.5166 -4.06802e-06C9.56156 0.00832926 5.84489 -0.746671 2.49989 2.72166Z" fill="url(#paint0_linear)"/>
<path d="M19.9966 5.23154C13.9449 5.23154 8.19823 4.69321 6.00323 10.3265C5.09656 12.6532 5.22823 15.6749 5.22823 20.0015C5.22823 23.7982 5.10656 27.3665 6.00323 29.6749C8.19323 35.3115 13.9866 34.7715 19.9932 34.7715C25.7882 34.7715 31.7632 35.3749 33.9849 29.6749C34.8932 27.3249 34.7599 24.3482 34.7599 20.0015C34.7599 14.2315 35.0782 10.5065 32.2799 7.70987C29.4466 4.87654 25.6149 5.23154 19.9899 5.23154H19.9966ZM18.6732 7.89321C31.2966 7.87321 32.9032 6.46987 32.0166 25.9649C31.7016 32.8599 26.4516 32.1032 19.9982 32.1032C8.23156 32.1032 7.89323 31.7665 7.89323 19.9949C7.89323 8.08654 8.82656 7.89987 18.6732 7.88987V7.89321ZM27.8799 10.3449C26.9016 10.3449 26.1082 11.1382 26.1082 12.1165C26.1082 13.0949 26.9016 13.8882 27.8799 13.8882C28.8582 13.8882 29.6516 13.0949 29.6516 12.1165C29.6516 11.1382 28.8582 10.3449 27.8799 10.3449ZM19.9966 12.4165C15.8082 12.4165 12.4132 15.8132 12.4132 20.0015C12.4132 24.1899 15.8082 27.5849 19.9966 27.5849C24.1849 27.5849 27.5782 24.1899 27.5782 20.0015C27.5782 15.8132 24.1849 12.4165 19.9966 12.4165ZM19.9966 15.0782C26.5049 15.0782 26.5132 24.9249 19.9966 24.9249C13.4899 24.9249 13.4799 15.0782 19.9966 15.0782Z" fill="white"/>
</g>
<defs>
<linearGradient id="paint0_linear" x1="2.57659" y1="37.4451" x2="39.7524" y2="5.26995" gradientUnits="userSpaceOnUse">
<stop stop-color="#FFDD55"/>
<stop offset="0.5" stop-color="#FF543E"/>
<stop offset="1" stop-color="#C837AB"/>
</linearGradient>
<clipPath id="clip0">
<rect width="40" height="40" fill="white"/>
</clipPath>
</defs>
</svg>
