<svg width="40" height="40" viewBox="0 0 40 40" fill="none" xmlns="http://www.w3.org/2000/svg">
<g clip-path="url(#clip0)">
<path d="M0.929149 40C0.704539 40 0.486034 39.9112 0.323985 39.7473C0.110362 39.5312 0.0279647 39.2175 0.108226 38.9243L2.70863 29.4284C1.08967 26.5009 0.236095 23.1891 0.237315 19.8273C0.241893 8.89435 9.13899 0 20.071 0C25.3734 0.00213623 30.3557 2.06757 34.1005 5.81512C37.8447 9.56299 39.9059 14.545 39.9044 19.8431C39.8995 30.7764 31.0024 39.6713 20.071 39.6713C20.071 39.6713 20.0628 39.6713 20.0625 39.6713C16.8694 39.6701 13.7038 38.8919 10.8852 37.4179L1.14491 39.9722C1.0735 39.9908 1.00087 40 0.929149 40Z" fill="#E5E5E5"/>
<path d="M0.929321 39.1488L3.62219 29.3151C1.96112 26.437 1.0874 23.1722 1.08862 19.8275C1.0929 9.36395 9.60791 0.851074 20.0712 0.851074C25.1487 0.85321 29.9146 2.82953 33.4986 6.41656C37.0823 10.0036 39.0552 14.7717 39.0534 19.8428C39.0488 30.306 30.5326 38.8201 20.0712 38.8201C20.0706 38.8201 20.0715 38.8201 20.0712 38.8201H20.0629C16.886 38.8189 13.7647 38.0221 10.9922 36.5099L0.929321 39.1488ZM11.4582 33.0746L12.0347 33.4161C14.4565 34.8535 17.2333 35.6136 20.0651 35.6152H20.0712C28.7668 35.6152 35.8445 28.5388 35.8481 19.8416C35.8497 15.6268 34.2103 11.6635 31.2314 8.68219C28.2523 5.70093 24.2914 4.05817 20.077 4.05634C11.3743 4.05634 4.29694 11.1318 4.29358 19.8287C4.29236 22.8091 5.1261 25.7113 6.70569 28.2229L7.08105 28.8198L5.48682 34.6401L11.4582 33.0746Z" fill="white"/>
<path d="M1.58926 38.4862L4.18906 28.9925C2.58505 26.2142 1.74185 23.062 1.74277 19.8336C1.74673 9.73224 9.96725 1.51416 20.0677 1.51416C24.97 1.5163 29.5711 3.42426 33.0303 6.88708C36.4904 10.3499 38.3947 14.9529 38.3929 19.8479C38.3886 29.9495 30.1678 38.1685 20.0686 38.1685C20.0677 38.1685 20.0689 38.1685 20.0686 38.1685H20.0603C16.9936 38.1673 13.98 37.3976 11.3036 35.9389L1.58926 38.4862Z" fill="#64B161"/>
<path d="M0.929321 39.1488L3.62219 29.3151C1.96112 26.437 1.0874 23.1722 1.08862 19.8275C1.0929 9.36395 9.60791 0.851074 20.0712 0.851074C25.1487 0.85321 29.9146 2.82953 33.4986 6.41656C37.0823 10.0036 39.0552 14.7717 39.0534 19.8428C39.0488 30.306 30.5326 38.8201 20.0712 38.8201C20.0706 38.8201 20.0715 38.8201 20.0712 38.8201H20.0629C16.886 38.8189 13.7647 38.0221 10.9922 36.5099L0.929321 39.1488ZM11.4582 33.0746L12.0347 33.4161C14.4565 34.8535 17.2333 35.6136 20.0651 35.6152H20.0712C28.7668 35.6152 35.8445 28.5388 35.8481 19.8416C35.8497 15.6268 34.2103 11.6635 31.2314 8.68219C28.2523 5.70093 24.2914 4.05817 20.077 4.05634C11.3743 4.05634 4.29694 11.1318 4.29358 19.8287C4.29236 22.8091 5.1261 25.7113 6.70569 28.2229L7.08105 28.8198L5.48682 34.6401L11.4582 33.0746Z" fill="white"/>
<path fill-rule="evenodd" clip-rule="evenodd" d="M15.3269 11.8942C14.9717 11.1044 14.5975 11.0885 14.2594 11.0748C13.9829 11.0629 13.6664 11.0635 13.3506 11.0635C13.0344 11.0635 12.5205 11.1825 12.0859 11.657C11.651 12.1316 10.4255 13.2791 10.4255 15.6127C10.4255 17.9467 12.1253 20.2017 12.3624 20.5184C12.5995 20.8349 15.6437 25.7769 20.4645 27.6782C24.4712 29.2584 25.2863 28.944 26.156 28.865C27.0258 28.786 28.9621 27.7175 29.3573 26.6101C29.7528 25.5026 29.7528 24.5535 29.6341 24.3548C29.5154 24.1574 29.1993 24.0386 28.725 23.8015C28.2508 23.5644 25.9189 22.4166 25.4841 22.2586C25.0492 22.1002 24.733 22.0214 24.4169 22.4963C24.1004 22.9705 23.1922 24.0386 22.9154 24.3548C22.6386 24.6719 22.3618 24.7116 21.8876 24.4741C21.4133 24.2364 19.8856 23.7359 18.0735 22.12C16.6636 20.863 15.7114 19.3102 15.4346 18.8354C15.1581 18.3612 15.43 18.1268 15.6431 17.8677C16.0267 17.4011 16.6703 16.5621 16.8284 16.246C16.9864 15.9292 16.9074 15.6524 16.789 15.415C16.6703 15.1779 15.7483 12.8323 15.3269 11.8942Z" fill="white"/>
</g>
<defs>
<clipPath id="clip0">
<rect width="40" height="40" fill="white"/>
</clipPath>
</defs>
</svg>
